<?xml version="1.0" encoding="utf-8"?>
<!-- Generator: Adobe Illustrator 23.0.0, SVG Export Plug-In . SVG Version: 6.00 Build 0)  -->
<svg version="1.1" id="Warstwa_1" xmlns="http://www.w3.org/2000/svg" xmlns:xlink="http://www.w3.org/1999/xlink" x="0px" y="0px"
	 viewBox="0 0 22.4 25" style="enable-background:new 0 0 22.4 25;" xml:space="preserve">
<style type="text/css">
	.st0{fill-rule:evenodd;clip-rule:evenodd;fill:#58B749;}
	.st1{fill:#58B749;}
	.st2{clip-path:url(#SVGID_2_);fill:#58B749;}
</style>
<g>
	<g>
		<path id="SVGID_29_" class="st0" d="M5.8,7.5c0-1.1,0.4-1.7,1.7-1.9h8.9c1.1,0,1.9-0.3,2.5-0.8c0.4-0.4,0.7-0.8,0.8-1.7l0.8-2.9V0
			h-0.1H6.8C2.2,0.6,0,3.1,0,7.5v0.7c0,3.9,2.4,6.2,6.8,6.9h6.9c1.2,0.1,1.8,0.8,1.8,1.9c0,1.2-0.6,2.1-1.8,2.2H0.8
			c0,0-0.1,0-0.3,0.1c0,0.1,0,0.3,0,0.3s1.1,3.3,1.1,3.5c0.4,1,1.8,1.8,3.2,1.8h10.7c4.4-0.6,6.7-3.2,6.8-7.8v-0.7
			c0-4.3-2.6-7.1-6.8-7.1H7.9C6.4,9.3,5.8,8.7,5.8,7.5L5.8,7.5z"/>
	</g>
	<g>
		<g>
			<path id="SVGID_4_" class="st1" d="M5.8,7.5c0-1.1,0.4-1.7,1.7-1.9h8.9c1.1,0,1.9-0.3,2.5-0.8c0.4-0.4,0.7-0.8,0.8-1.7l0.8-2.9V0
				h-0.1H6.8C2.2,0.6,0,3.1,0,7.5v0.7c0,3.9,2.4,6.2,6.8,6.9h6.9c1.2,0.1,1.8,0.8,1.8,1.9c0,1.2-0.6,2.1-1.8,2.2H0.8
				c0,0-0.1,0-0.3,0.1c0,0.1,0,0.3,0,0.3s1.1,3.3,1.1,3.5c0.4,1,1.8,1.8,3.2,1.8h10.7c4.4-0.6,6.7-3.2,6.8-7.8v-0.7
				c0-4.3-2.6-7.1-6.8-7.1H7.9C6.4,9.3,5.8,8.7,5.8,7.5L5.8,7.5z"/>
		</g>
		<g>
			<g>
				<defs>
					<path id="SVGID_1_" d="M5.8,7.5c0-1.1,0.4-1.7,1.7-1.9h8.9c1.1,0,1.9-0.3,2.5-0.8c0.4-0.4,0.7-0.8,0.8-1.7l0.8-2.9V0h-0.1H6.8
						C2.2,0.6,0,3.1,0,7.5v0.7c0,3.9,2.4,6.2,6.8,6.9h6.9c1.2,0.1,1.8,0.8,1.8,1.9c0,1.2-0.6,2.1-1.8,2.2H0.8c0,0-0.1,0-0.3,0.1
						c0,0.1,0,0.3,0,0.3s1.1,3.3,1.1,3.5c0.4,1,1.8,1.8,3.2,1.8h10.7c4.4-0.6,6.7-3.2,6.8-7.8v-0.7c0-4.3-2.6-7.1-6.8-7.1H7.9
						C6.4,9.3,5.8,8.7,5.8,7.5L5.8,7.5z"/>
				</defs>
				<clipPath id="SVGID_2_">
					<use xlink:href="#SVGID_1_"  style="overflow:visible;"/>
				</clipPath>
				<polygon class="st2" points="-1.5,-1.5 23.6,-1.5 23.6,26.7 -1.5,26.7 				"/>
			</g>
		</g>
	</g>
</g>
</svg>
