<?xml version="1.0" encoding="utf-8"?>
<!-- Generator: Adobe Illustrator 16.0.0, SVG Export Plug-In . SVG Version: 6.00 Build 0)  -->
<!DOCTYPE svg PUBLIC "-//W3C//DTD SVG 1.1//EN" "http://www.w3.org/Graphics/SVG/1.1/DTD/svg11.dtd">
<svg version="1.1" id="Layer_1" xmlns="http://www.w3.org/2000/svg" xmlns:xlink="http://www.w3.org/1999/xlink" x="0px" y="0px"
	 width="240px" height="42px" viewBox="0 0 240 42" enable-background="new 0 0 240 42" xml:space="preserve">
<g>
	<g>
		<defs>
			<path id="SVGID_17_" d="M48.8,19.5v-8.7l9,0c1.8,0.4,2.8,1.9,2.8,4c0,2.5-0.8,4.3-2.8,4.7L48.8,19.5L48.8,19.5z M39.4,2.6
				C39.2,2.8,39.2,3,39.2,3v36.5h9.6V27.7H61c6.1,0,9.9-4.2,10-10.9v-4.7c-0.1-6.2-3.5-9.7-10-9.7l-21.1,0
				C39.8,2.4,39.5,2.4,39.4,2.6L39.4,2.6z"/>
		</defs>
		<use xlink:href="#SVGID_17_"  overflow="visible" fill-rule="evenodd" clip-rule="evenodd" fill="#FFFFFF"/>
		<clipPath id="SVGID_2_">
			<use xlink:href="#SVGID_17_"  overflow="visible"/>
		</clipPath>
		<polygon clip-path="url(#SVGID_2_)" fill="#FFFFFF" points="37,0.2 73.1,0.2 73.1,41.7 37,41.7 37,0.2 		"/>
	</g>
	<g>
		<defs>
			<path id="SVGID_19_" d="M97.3,25.2c0,4.2-2.1,6.3-6.4,6.3c-4.3,0-6.6-2.2-6.6-6.3V2.4h-0.2h-0.4h-8.5h-0.4h-0.2v0.2V3v22.6
				c0,9,5.8,13.8,16.5,13.8c10.4,0,15.8-4.7,15.8-13.8V2.4h-0.2h-0.4H98h-0.4h-0.2v0.2V3V25.2L97.3,25.2z"/>
		</defs>
		<use xlink:href="#SVGID_19_"  overflow="visible" fill-rule="evenodd" clip-rule="evenodd" fill="#FFFFFF"/>
		<clipPath id="SVGID_4_">
			<use xlink:href="#SVGID_19_"  overflow="visible"/>
		</clipPath>
		<polygon clip-path="url(#SVGID_4_)" fill="#FFFFFF" points="72.4,0.2 109.1,0.2 109.1,41.6 72.4,41.6 72.4,0.2 		"/>
	</g>
	<g>
		<defs>
			<path id="SVGID_21_" d="M121,11.1l0,28.4h9.7V11.1h6.5c1.9,0,3.5-1,3.8-2.1l1.7-6.2c0,0,0.1-0.2,0-0.3c-0.1-0.1-0.2-0.1-0.2-0.1
				h-31.7v8.7H121L121,11.1z"/>
		</defs>
		<use xlink:href="#SVGID_21_"  overflow="visible" fill-rule="evenodd" clip-rule="evenodd" fill="#FFFFFF"/>
		<clipPath id="SVGID_6_">
			<use xlink:href="#SVGID_21_"  overflow="visible"/>
		</clipPath>
		<polygon clip-path="url(#SVGID_6_)" fill="#FFFFFF" points="108.6,0.2 145,0.2 145,41.7 108.6,41.7 108.6,0.2 		"/>
	</g>
	<g>
		<defs>
			<polygon id="SVGID_23_" points="185.9,2.4 185.9,39.5 195.6,39.5 195.6,2.4 185.9,2.4 			"/>
		</defs>
		<use xlink:href="#SVGID_23_"  overflow="visible" fill-rule="evenodd" clip-rule="evenodd" fill="#FFFFFF"/>
		<clipPath id="SVGID_8_">
			<use xlink:href="#SVGID_23_"  overflow="visible"/>
		</clipPath>
		<polygon clip-path="url(#SVGID_8_)" fill="#FFFFFF" points="183.7,0.2 197.7,0.2 197.7,41.7 183.7,41.7 183.7,0.2 		"/>
	</g>
	<g>
		<defs>
			<path id="SVGID_25_" d="M236.6,2.9c0,0,0.1-0.2,0.1-0.4c-0.1-0.1-0.3-0.1-0.3-0.1h-8.8c-0.9,0-2,0.2-2.8,1.1
				c-0.7,0.9-8.9,11.7-8.9,11.7c-1.6,2.4-1.6,3-1.6,4c0,1,0,1.8,1.6,4.3c0,0,8.8,13.7,9.5,14.8c0.8,1.2,3,1.3,3.5,1.3h8
				c0,0,0.2,0,0.3-0.2c0.1-0.2,0-0.3,0-0.3l-11.7-17.8c-1-1.4-1-2,0-3.5C225.7,17.7,236.6,2.9,236.6,2.9L236.6,2.9z"/>
		</defs>
		<use xlink:href="#SVGID_25_"  overflow="visible" fill-rule="evenodd" clip-rule="evenodd" fill="#FFFFFF"/>
		<clipPath id="SVGID_10_">
			<use xlink:href="#SVGID_25_"  overflow="visible"/>
		</clipPath>
		<polygon clip-path="url(#SVGID_10_)" fill="#FFFFFF" points="212.3,0.2 239.6,0.2 239.6,41.8 212.3,41.8 212.3,0.2 		"/>
	</g>
	<g>
		<defs>
			<polygon id="SVGID_27_" points="203.1,2.4 202.7,2.4 202.5,2.4 202.5,2.6 202.5,3 202.5,38.8 202.5,39.3 202.5,39.5 212,39.5 
				212,2.4 211.8,2.4 211.4,2.4 203.1,2.4 			"/>
		</defs>
		<use xlink:href="#SVGID_27_"  overflow="visible" fill-rule="evenodd" clip-rule="evenodd" fill="#FFFFFF"/>
		<clipPath id="SVGID_12_">
			<use xlink:href="#SVGID_27_"  overflow="visible"/>
		</clipPath>
		<polygon clip-path="url(#SVGID_12_)" fill="#FFFFFF" points="200.3,0.2 214.2,0.2 214.2,41.6 200.3,41.6 200.3,0.2 		"/>
	</g>
	<g>
		<defs>
			<path id="SVGID_29_" d="M11.2,13.6c0-1.7,0.7-2.5,2.5-2.8l13.1,0c1.7-0.1,2.9-0.5,3.7-1.2c0.6-0.6,1-1.3,1.3-2.5l1.2-4.3
				c0,0,0.1-0.2,0-0.3c-0.1-0.1-0.2-0.1-0.3-0.1h-20C6,3.3,2.7,6.9,2.6,13.5v1c0.1,5.8,3.4,9.2,10,10.3l10.2,0
				c1.9,0.3,2.7,1.3,2.7,2.9c0,1.9-0.9,3-2.6,3.3l-19.1,0c0,0-0.3,0-0.4,0.2c-0.1,0.2-0.1,0.4-0.1,0.4s1.6,4.9,1.7,5.1
				c0.7,1.5,2.7,2.7,4.6,2.7l15.7,0c6.6-0.8,9.9-4.6,10-11.5v-1c-0.1-6.4-3.9-10.5-10-10.5l-11.2,0C12.1,16.3,11.2,15.3,11.2,13.6
				L11.2,13.6z"/>
		</defs>
		<use xlink:href="#SVGID_29_"  overflow="visible" fill-rule="evenodd" clip-rule="evenodd" fill="#FFFFFF"/>
		<clipPath id="SVGID_14_">
			<use xlink:href="#SVGID_29_"  overflow="visible"/>
		</clipPath>
		<polygon clip-path="url(#SVGID_14_)" fill="#FFFFFF" points="0.4,0.2 37.4,0.2 37.4,41.7 0.4,41.7 0.4,0.2 		"/>
	</g>
	<g>
		<defs>
			<path id="SVGID_31_" d="M156.9,4.7c-0.2-0.3-0.5-0.6-0.8-0.9c-0.9-0.9-1.9-1.4-3-1.4l-7.2,0l0,37.1h9.4V19.2l11.8,16.5
				c0.2,0.3,1,1.3,1.6,1.9c1.3,1.2,2.6,1.8,3.7,1.8h6.6V2.5h-9.5v20.8C169.7,23.2,157,4.8,156.9,4.7L156.9,4.7z"/>
		</defs>
		<use xlink:href="#SVGID_31_"  overflow="visible" fill-rule="evenodd" clip-rule="evenodd" fill="#FFFFFF"/>
		<clipPath id="SVGID_16_">
			<use xlink:href="#SVGID_31_"  overflow="visible"/>
		</clipPath>
		<polygon clip-path="url(#SVGID_16_)" fill="#FFFFFF" points="143.8,0.2 181.4,0.2 181.4,41.7 143.8,41.7 143.8,0.2 		"/>
	</g>
</g>
</svg>
