<?xml version="1.0" encoding="utf-8"?>
<!-- Generator: Adobe Illustrator 23.0.0, SVG Export Plug-In . SVG Version: 6.00 Build 0)  -->
<svg version="1.1" id="Layer_1" xmlns="http://www.w3.org/2000/svg" xmlns:xlink="http://www.w3.org/1999/xlink" x="0px" y="0px"
	 viewBox="0 0 234.6 37.2" style="enable-background:new 0 0 234.6 37.2;" xml:space="preserve">
<style type="text/css">
	.st0{fill-rule:evenodd;clip-rule:evenodd;fill:#58B749;}
	.st1{clip-path:url(#SVGID_2_);fill:#58B749;}
	.st2{clip-path:url(#SVGID_4_);fill:#58B749;}
	.st3{clip-path:url(#SVGID_6_);fill:#58B749;}
	.st4{clip-path:url(#SVGID_8_);fill:#58B749;}
	.st5{clip-path:url(#SVGID_10_);fill:#58B749;}
	.st6{clip-path:url(#SVGID_12_);fill:#58B749;}
	.st7{clip-path:url(#SVGID_14_);fill:#58B749;}
	.st8{clip-path:url(#SVGID_16_);fill:#58B749;}
</style>
<g>
	<g>
		<g>
			<path id="SVGID_17_" class="st0" d="M46.2,17.1V8.4h9c1.8,0.4,2.8,1.9,2.8,4c0,2.5-0.8,4.3-2.8,4.7H46.2L46.2,17.1z M36.8,0.2
				c-0.2,0.2-0.2,0.4-0.2,0.4v36.5h9.6V25.3h12.2c6.1,0,9.9-4.2,10-10.9V9.7C68.3,3.5,64.9,0,58.4,0H37.3C37.2,0,36.9,0,36.8,0.2
				L36.8,0.2z"/>
		</g>
		<g>
			<defs>
				<path id="SVGID_1_" d="M46.2,17.1V8.4h9c1.8,0.4,2.8,1.9,2.8,4c0,2.5-0.8,4.3-2.8,4.7H46.2L46.2,17.1z M36.8,0.2
					c-0.2,0.2-0.2,0.4-0.2,0.4v36.5h9.6V25.3h12.2c6.1,0,9.9-4.2,10-10.9V9.7C68.3,3.5,64.9,0,58.4,0H37.3C37.2,0,36.9,0,36.8,0.2
					L36.8,0.2z"/>
			</defs>
			<use xlink:href="#SVGID_1_"  style="overflow:visible;fill:#58B749;"/>
			<clipPath id="SVGID_2_">
				<use xlink:href="#SVGID_1_"  style="overflow:visible;"/>
			</clipPath>
			<polygon class="st1" points="34.4,-2.2 70.5,-2.2 70.5,39.3 34.4,39.3 			"/>
		</g>
	</g>
	<g>
		<g>
			<path id="SVGID_19_" class="st0" d="M94.7,22.8c0,4.2-2.1,6.3-6.4,6.3s-6.6-2.2-6.6-6.3V0h-0.2h-0.4h-8.5h-0.4H72v0.2v0.4v22.6
				c0,9,5.8,13.8,16.5,13.8c10.4,0,15.8-4.7,15.8-13.8V0h-0.2h-0.4h-8.3H95h-0.2v0.2v0.4L94.7,22.8L94.7,22.8z"/>
		</g>
		<g>
			<defs>
				<path id="SVGID_3_" d="M94.7,22.8c0,4.2-2.1,6.3-6.4,6.3s-6.6-2.2-6.6-6.3V0h-0.2h-0.4h-8.5h-0.4H72v0.2v0.4v22.6
					c0,9,5.8,13.8,16.5,13.8c10.4,0,15.8-4.7,15.8-13.8V0h-0.2h-0.4h-8.3H95h-0.2v0.2v0.4L94.7,22.8L94.7,22.8z"/>
			</defs>
			<use xlink:href="#SVGID_3_"  style="overflow:visible;fill:#58B749;"/>
			<clipPath id="SVGID_4_">
				<use xlink:href="#SVGID_3_"  style="overflow:visible;"/>
			</clipPath>
			<polygon class="st2" points="69.8,-2.2 106.5,-2.2 106.5,39.2 69.8,39.2 			"/>
		</g>
	</g>
	<g>
		<g>
			<path id="SVGID_21_" class="st0" d="M118.4,8.7v28.4h9.7V8.7h6.5c1.9,0,3.5-1,3.8-2.1l1.7-6.2c0,0,0.1-0.2,0-0.3S139.9,0,139.9,0
				h-31.7v8.7H118.4L118.4,8.7z"/>
		</g>
		<g>
			<defs>
				<path id="SVGID_5_" d="M118.4,8.7v28.4h9.7V8.7h6.5c1.9,0,3.5-1,3.8-2.1l1.7-6.2c0,0,0.1-0.2,0-0.3S139.9,0,139.9,0h-31.7v8.7
					H118.4L118.4,8.7z"/>
			</defs>
			<use xlink:href="#SVGID_5_"  style="overflow:visible;fill:#58B749;"/>
			<clipPath id="SVGID_6_">
				<use xlink:href="#SVGID_5_"  style="overflow:visible;"/>
			</clipPath>
			<polygon class="st3" points="106,-2.2 142.4,-2.2 142.4,39.3 106,39.3 			"/>
		</g>
	</g>
	<g>
		<g>
			<polygon id="SVGID_23_" class="st0" points="183.3,0 183.3,37.1 193,37.1 193,0 			"/>
		</g>
		<g>
			<defs>
				<rect id="SVGID_7_" x="183.3" y="0" width="9.7" height="37.1"/>
			</defs>
			<use xlink:href="#SVGID_7_"  style="overflow:visible;fill:#58B749;"/>
			<clipPath id="SVGID_8_">
				<use xlink:href="#SVGID_7_"  style="overflow:visible;"/>
			</clipPath>
			<polygon class="st4" points="181.1,-2.2 195.1,-2.2 195.1,39.3 181.1,39.3 			"/>
		</g>
	</g>
	<g>
		<g>
			<path id="SVGID_25_" class="st0" d="M234,0.5c0,0,0.1-0.2,0.1-0.4C234,0,233.8,0,233.8,0H225c-0.9,0-2,0.2-2.8,1.1
				c-0.7,0.9-8.9,11.7-8.9,11.7c-1.6,2.4-1.6,3-1.6,4s0,1.8,1.6,4.3c0,0,8.8,13.7,9.5,14.8c0.8,1.2,3,1.3,3.5,1.3h8
				c0,0,0.2,0,0.3-0.2c0.1-0.2,0-0.3,0-0.3l-11.7-17.8c-1-1.4-1-2,0-3.5C223.1,15.3,234,0.5,234,0.5L234,0.5z"/>
		</g>
		<g>
			<defs>
				<path id="SVGID_9_" d="M234,0.5c0,0,0.1-0.2,0.1-0.4C234,0,233.8,0,233.8,0H225c-0.9,0-2,0.2-2.8,1.1
					c-0.7,0.9-8.9,11.7-8.9,11.7c-1.6,2.4-1.6,3-1.6,4s0,1.8,1.6,4.3c0,0,8.8,13.7,9.5,14.8c0.8,1.2,3,1.3,3.5,1.3h8
					c0,0,0.2,0,0.3-0.2c0.1-0.2,0-0.3,0-0.3l-11.7-17.8c-1-1.4-1-2,0-3.5C223.1,15.3,234,0.5,234,0.5L234,0.5z"/>
			</defs>
			<use xlink:href="#SVGID_9_"  style="overflow:visible;fill:#58B749;"/>
			<clipPath id="SVGID_10_">
				<use xlink:href="#SVGID_9_"  style="overflow:visible;"/>
			</clipPath>
			<polygon class="st5" points="209.7,-2.2 237,-2.2 237,39.4 209.7,39.4 			"/>
		</g>
	</g>
	<g>
		<g>
			<polygon id="SVGID_27_" class="st0" points="200.5,0 200.1,0 199.9,0 199.9,0.2 199.9,0.6 199.9,36.4 199.9,36.9 199.9,37.1 
				209.4,37.1 209.4,0 209.2,0 208.8,0 			"/>
		</g>
		<g>
			<defs>
				<polygon id="SVGID_11_" points="200.5,0 200.1,0 199.9,0 199.9,0.2 199.9,0.6 199.9,36.4 199.9,36.9 199.9,37.1 209.4,37.1 
					209.4,0 209.2,0 208.8,0 				"/>
			</defs>
			<use xlink:href="#SVGID_11_"  style="overflow:visible;fill:#58B749;"/>
			<clipPath id="SVGID_12_">
				<use xlink:href="#SVGID_11_"  style="overflow:visible;"/>
			</clipPath>
			<polygon class="st6" points="197.7,-2.2 211.6,-2.2 211.6,39.2 197.7,39.2 			"/>
		</g>
	</g>
	<g>
		<g>
			<path id="SVGID_29_" class="st0" d="M8.6,11.2c0-1.7,0.7-2.5,2.5-2.8h13.1c1.7-0.1,2.9-0.5,3.7-1.2c0.6-0.6,1-1.3,1.3-2.5
				l1.2-4.3c0,0,0.1-0.2,0-0.3S30.2,0,30.1,0h-20C3.4,0.9,0.1,4.5,0,11.1v1c0.1,5.8,3.4,9.2,10,10.3h10.2c1.9,0.3,2.7,1.3,2.7,2.9
				c0,1.9-0.9,3-2.6,3.3H1.2c0,0-0.3,0-0.4,0.2c-0.1,0.2-0.1,0.4-0.1,0.4s1.6,4.9,1.7,5.1C3.1,35.8,5.1,37,7,37h15.7
				c6.6-0.8,9.9-4.6,10-11.5v-1c-0.1-6.4-3.9-10.5-10-10.5H11.5C9.5,13.9,8.6,12.9,8.6,11.2L8.6,11.2z"/>
		</g>
		<g>
			<defs>
				<path id="SVGID_13_" d="M8.6,11.2c0-1.7,0.7-2.5,2.5-2.8h13.1c1.7-0.1,2.9-0.5,3.7-1.2c0.6-0.6,1-1.3,1.3-2.5l1.2-4.3
					c0,0,0.1-0.2,0-0.3S30.2,0,30.1,0h-20C3.4,0.9,0.1,4.5,0,11.1v1c0.1,5.8,3.4,9.2,10,10.3h10.2c1.9,0.3,2.7,1.3,2.7,2.9
					c0,1.9-0.9,3-2.6,3.3H1.2c0,0-0.3,0-0.4,0.2c-0.1,0.2-0.1,0.4-0.1,0.4s1.6,4.9,1.7,5.1C3.1,35.8,5.1,37,7,37h15.7
					c6.6-0.8,9.9-4.6,10-11.5v-1c-0.1-6.4-3.9-10.5-10-10.5H11.5C9.5,13.9,8.6,12.9,8.6,11.2L8.6,11.2z"/>
			</defs>
			<use xlink:href="#SVGID_13_"  style="overflow:visible;fill:#58B749;"/>
			<clipPath id="SVGID_14_">
				<use xlink:href="#SVGID_13_"  style="overflow:visible;"/>
			</clipPath>
			<polygon class="st7" points="-2.2,-2.2 34.8,-2.2 34.8,39.3 -2.2,39.3 			"/>
		</g>
	</g>
	<g>
		<g>
			<path id="SVGID_31_" class="st0" d="M154.3,2.3c-0.2-0.3-0.5-0.6-0.8-0.9c-0.9-0.9-1.9-1.4-3-1.4h-7.2v37.1h9.4V16.8l11.8,16.5
				c0.2,0.3,1,1.3,1.6,1.9c1.3,1.2,2.6,1.8,3.7,1.8h6.6V0.1h-9.5v20.8C167.1,20.8,154.4,2.4,154.3,2.3L154.3,2.3z"/>
		</g>
		<g>
			<defs>
				<path id="SVGID_15_" d="M154.3,2.3c-0.2-0.3-0.5-0.6-0.8-0.9c-0.9-0.9-1.9-1.4-3-1.4h-7.2v37.1h9.4V16.8l11.8,16.5
					c0.2,0.3,1,1.3,1.6,1.9c1.3,1.2,2.6,1.8,3.7,1.8h6.6V0.1h-9.5v20.8C167.1,20.8,154.4,2.4,154.3,2.3L154.3,2.3z"/>
			</defs>
			<use xlink:href="#SVGID_15_"  style="overflow:visible;fill:#58B749;"/>
			<clipPath id="SVGID_16_">
				<use xlink:href="#SVGID_15_"  style="overflow:visible;"/>
			</clipPath>
			<polygon class="st8" points="141.2,-2.2 178.8,-2.2 178.8,39.3 141.2,39.3 			"/>
		</g>
	</g>
</g>
</svg>
